<svg id="_ëîé_1" data-name="‘ëîé_1" xmlns="http://www.w3.org/2000/svg" viewBox="0 0 2405.17 541.49"><defs><style>.cls-1,.cls-2{fill:#fff;}.cls-2{fill-rule:evenodd;}</style></defs><title>Alogo-alpasha</title><path class="cls-1" d="M2141.76,777.21v223.35a19.48,19.48,0,0,1-19.48,19.49h-7.83a19.49,19.49,0,0,1-19.49-19.49V899.67H1926.24v100.82a19.5,19.5,0,0,1-19.49,19.49h-7.83a19.5,19.5,0,0,1-19.49-19.49V777.15a19.49,19.49,0,0,1,19.49-19.49h7.83a19.49,19.49,0,0,1,19.49,19.49v75.73H2095V777.21a19.5,19.5,0,0,1,19.49-19.49h7.83A19.49,19.49,0,0,1,2141.76,777.21Z" transform="translate(-96.88 -534.5)"/><path class="cls-1" d="M663.49,993.7v7.78A19.48,19.48,0,0,1,644,1021H530.54a83,83,0,0,1-36.78-8.57,84.49,84.49,0,0,1-46.76-75V778.14a19.49,19.49,0,0,1,19.49-19.49h7.78a19.5,19.5,0,0,1,19.49,19.49v164a37.36,37.36,0,0,0,32.11,32.1H644A19.49,19.49,0,0,1,663.49,993.7Z" transform="translate(-96.88 -534.5)"/><path class="cls-1" d="M990.45,828.45A70.75,70.75,0,0,1,949,893a65.33,65.33,0,0,1-20.42,5.77,8.61,8.61,0,0,1-2,.16v.47H777.18V1000.6a19.5,19.5,0,0,1-19.49,19.49h-7.78a19.49,19.49,0,0,1-19.49-19.49V777.1a19.49,19.49,0,0,1,19.48-19.49l169.79-.07a70.42,70.42,0,0,1,50,20.73A71.32,71.32,0,0,1,990.45,828.45Zm-46.76,1a25.29,25.29,0,0,0-7.16-17.29,23.89,23.89,0,0,0-16.84-6.86H777.21v48.31H919.69a21.51,21.51,0,0,0,9.82-2.18A23.91,23.91,0,0,0,943.69,829.45Z" transform="translate(-96.88 -534.5)"/><path class="cls-1" d="M1787.7,881.1A82.38,82.38,0,0,0,1726.45,854H1593.17a24,24,0,0,1-24-24v-1.4a24,24,0,0,1,24-24h180a19.49,19.49,0,0,0,19.48-19.49v-7.94a19.49,19.49,0,0,0-19.48-19.49h-180a70.76,70.76,0,0,0-70.76,70.76V830A70,70,0,0,0,1535,870.19a62.28,62.28,0,0,0,9.19,10.91,69.58,69.58,0,0,0,48.94,19.79h132.27c17.31,0,33.08,11.68,36.55,28.64a36.28,36.28,0,0,1-35.54,43.68h-174a19.49,19.49,0,0,0-19.49,19.49v7.78a19.48,19.48,0,0,0,19.49,19.49h171.5c42.07,0,79.47-30.2,84.89-71.92a82.68,82.68,0,0,0-18-63.37A22.68,22.68,0,0,0,1787.7,881.1Z" transform="translate(-96.88 -534.5)"/><path class="cls-1" d="M392.39,995,263.07,771a19.49,19.49,0,0,0-34.73,0L99,995a19.48,19.48,0,0,0,17.36,28.33h9.32c7.33,0,13.27-2.2,21.22-17.09l98.78-173.78,99.44,174.9c6.06,10.18,13.15,15.9,20.45,15.93l9.42,0A19.49,19.49,0,0,0,392.39,995Z" transform="translate(-96.88 -534.5)"/><rect class="cls-1" x="120.51" y="395.39" width="56.64" height="46.76" rx="19.49"/><path class="cls-1" d="M2499.9,990.75l-129.32-224a19.49,19.49,0,0,0-34.73,0l-129.32,224a19.49,19.49,0,0,0,17.37,28.33h9.32c7.33,0,13.27-2.2,21.22-17.09l98.78-173.78,99.44,174.9c6.06,10.18,13.15,15.9,20.45,15.93l9.42,0A19.49,19.49,0,0,0,2499.9,990.75Z" transform="translate(-96.88 -534.5)"/><rect class="cls-1" x="2228.02" y="391.16" width="56.64" height="46.76" rx="19.49"/><path class="cls-2" d="M1567.84,719.14a58.21,58.21,0,0,1-7.64,1.83c-2.9.53-8.9,1.78-13.3,2.8s-10.32,2.26-13.19,2.79c-5.74,1.08-8.9,2-11.84,3.35a9.51,9.51,0,0,1-3.92.93c-1.26,0-3.84.6-7.63,1.83-7.27,2.35-9.62,3-13.45,3.43-3.1.37-5.11.93-5.11,1.45,0,.68-2.68,1.46-6,1.84a22.75,22.75,0,0,0-10,3.19c-2.38,1.56-5.17,2.46-9.65,3a24.49,24.49,0,0,0-6.74,1.63c-1.38.61-7.53,2.77-13.67,4.82s-14.46,5-18.45,6.4-12.63,4.59-19.14,6.94c-14.94,5.4-17.33,6.34-24.44,9.65-6.53,3-11,4.81-13.6,5.39-2.84.64-8.39,2.84-16,6.34-3.91,1.79-8.38,3.73-9.91,4.25-3.94,1.42-7.49,3-17.7,8.16-11.24,5.59-18.55,9-21.12,9.79-1.08.34-3,1.05-4.21,1.57-4,1.61-22.8,10.85-34.84,17-11.28,5.82-14.34,7.5-21.23,11.71-1.75,1-7.86,4.28-13.6,7.18C1218.37,853,1213,856,1209,858.63c-3.28,2.2-8.57,5.22-17.89,10.26-3,1.59-8.15,4.57-11.54,6.67s-12,7.25-19.19,11.58c-33.87,20.38-85.51,54.84-114.94,76.75-6.67,5-14.71,10.92-17.89,13.26s-7.18,5.51-8.94,7a20.1,20.1,0,0,1-5.21,3.47c-1.68.63-2.76,1.49-6,4.73a98,98,0,0,1-7.9,7.12c-3.47,2.69-6.11,4.62-15.31,10.92-3,2.08-4.29,5.07-3.13,7.37.36.75.93,1,2.68,1.42,3.68.74,29.73,1.15,76.82,1.2h44l6.45-7c7.67-8.27,51.75-52.68,63.64-64.05,9-8.67,16.16-14.53,34.31-28.24,6.44-4.88,15.23-11.66,19.56-15,14-11,29.39-22.16,51.41-37.3,7-4.77,15-10.43,17.89-12.55,6.7-5,13.93-9.8,14.6-9.8.86,0,3.13-1.3,6.63-3.83a62,62,0,0,1,7.27-4.33,71.45,71.45,0,0,0,8.38-5.07c6.56-4.69,12-8.38,12.45-8.38.18,0,4.25-2.34,9-5.24,10.72-6.53,13.37-8,16.1-8.91,2.08-.71,3.09-1.27,11-6.16,5.37-3.27,15-8.38,31.67-16.73,16.88-8.41,24-11.73,27.91-12.89a70.88,70.88,0,0,0,8.79-3.93,154.28,154.28,0,0,1,22.17-9.28c3.39-1.16,8.08-3,10.43-4.07,5-2.31,9.39-3.95,30.18-11.09C1535.88,739,1552,734.2,1560,732.78a47.8,47.8,0,0,0,6.72-2.27c2.53-1,5.69-2.12,7-2.46,5.47-1.41,13.29-6.89,11.47-8-1.2-.75-9.24-1.86-13-1.79a16.74,16.74,0,0,0-4.39.92" transform="translate(-96.88 -534.5)"/><path class="cls-2" d="M1381.67,824.88c-2.65,1.67-8.36,5.4-12.67,8.28s-11.66,7.63-16.4,10.57c-12.82,8-24.55,15.43-45.34,28.81-32,20.59-32,20.59-32.93,22.87-1.3,3.05-.34,6.82,5.21,20.53s13.19,33.31,24.26,62.29c9.24,24.18,13.23,33.87,15.23,36.93,2.24,3.32,4.26,3.42,71,3.42,52.51,0,66.4-.26,70.61-1.23,2.12-.48,2.94-1.6,2.68-3.72-.11-.94-2.64-7.78-5.58-15.28-4.41-11-48-124-62-160.58-1.93-5-4-10.16-4.65-11.44-1.3-2.53-3.09-4.58-4-4.58a42.33,42.33,0,0,0-5.43,3.13" transform="translate(-96.88 -534.5)"/><path class="cls-2" d="M1175.49,535.32c-.16.49-2.17,5.89-4.44,12-4.62,12.48-20.31,55.77-23.36,64.45-2.42,6.81-9.88,27.31-13.9,38.19-1.64,4.39-6.18,17-10.13,27.94s-11.51,31.93-16.84,46.58-11.26,31-13.15,36.32c-6.56,18.26-15.39,42.47-21.72,59.43-9.54,25.47-20.87,57.18-24.15,67.54-1.45,4.58-.86,5.78,2.27,4.58,1.79-.71,2.91-1.49,12.75-9.2,6.18-4.84,22.09-17,52.83-40.19,39.23-29.71,49.22-37.53,54.25-42.56,4.2-4.21,4.58-5.1,17-38.3,11.32-30.4,14.59-38,16.31-38,1.42,0,12.07,24.59,20.31,46.76,4.66,12.55,5.26,15.16,3.91,17.17-.78,1.23-2.46,2.39-10.92,7.64-13.78,8.5-60.27,39.27-81.48,53.87-18.88,13-59,43.18-83.64,62.86a1251.82,1251.82,0,0,0-101.15,90.91c-27.42,27.41-50.15,52.23-60.06,65.57-3.17,4.24-3.92,5.54-3.76,6.62.11.72.25.64,2-.7,2.57-2,11-9.61,18.81-16.87,23.48-21.8,33-30.3,50.23-44.64,21.2-17.66,45.9-36.74,71.79-55.4,24.26-17.52,68.29-46.79,103.57-68.85,10.33-6.45,39.5-24,48.82-29.33,36.1-20.67,106.55-58.27,116.24-62,1.45-.56,5.47-2.42,8.93-4.14,11.12-5.47,41.18-18,52.51-21.79,6-2.05,7.3-3.09,7.3-5.81a21.7,21.7,0,0,0-1.23-5.37c-1.61-4.58-15.43-40.5-30.52-79.17-6.55-16.8-17.43-44.82-24.14-62.22-28-72.54-30.44-78.69-33.2-83l-1.15-1.79H1175.82Z" transform="translate(-96.88 -534.5)"/></svg>