<?xml version="1.0" encoding="UTF-8"?> <svg xmlns="http://www.w3.org/2000/svg" id="Layer_1" data-name="Layer 1" viewBox="0 0 103.44 132.18"><defs><style>.cls-1,.cls-3{fill:#991915;}.cls-2{fill:#fff;}.cls-3,.cls-4{fill-rule:evenodd;}.cls-4{fill:#333;}</style></defs><title>Untitleلوغو</title><path class="cls-1" d="M75,6.23C46.39,6,22.8,28.25,22.75,55.56a48.16,48.16,0,0,0,15.13,35,186.12,186.12,0,0,1,34.65,44.35l1.94,3.52,1.69-3.07a175.64,175.64,0,0,1,34.28-44.22,48.21,48.21,0,0,0,15.75-35.49C126.19,28.51,103.31,6.5,75,6.23Zm-.51,72.3c-13.23,0-24-10.25-24-22.9s10.74-22.89,24-22.89,24,10.25,24,22.89S87.71,78.53,74.47,78.53Z" transform="translate(-22.75 -6.23)"></path><circle class="cls-2" cx="74.47" cy="56.09" r="31.89" transform="translate(-20.37 108.98) rotate(-76.34)"></circle><path class="cls-3" d="M101.21,47.2a4.34,4.34,0,0,1-.59.14l-1,.22-1,.21a4,4,0,0,0-.91.26.73.73,0,0,1-.31.07,2.72,2.72,0,0,0-.58.14,5.28,5.28,0,0,1-1,.27c-.23,0-.39.07-.39.11s-.2.11-.46.14a1.84,1.84,0,0,0-.76.24,1.66,1.66,0,0,1-.74.23,1.87,1.87,0,0,0-.52.13c-.11,0-.58.21-1,.37l-1.42.49-1.47.53c-1.15.42-1.33.49-1.88.74a6.59,6.59,0,0,1-1,.42,7.77,7.77,0,0,0-1.23.49l-.76.32a12.28,12.28,0,0,0-1.36.63A17.2,17.2,0,0,1,81,54.1l-.32.12c-.31.13-1.75.84-2.68,1.31s-1.1.58-1.63.9c-.13.08-.6.33-1,.55a16.79,16.79,0,0,0-1.73.94c-.26.17-.66.4-1.38.79-.23.12-.62.35-.88.51l-1.48.89c-2.6,1.57-6.57,4.21-8.83,5.9L59.7,67c-.25.18-.56.42-.69.53a1.85,1.85,0,0,1-.4.27,1.27,1.27,0,0,0-.46.36,7.57,7.57,0,0,1-.61.55c-.26.2-.47.35-1.17.84-.24.16-.33.39-.24.56s.07.08.2.11c.29.06,2.29.09,5.9.09h3.39l.49-.53c.59-.64,4-4,4.89-4.93a27.89,27.89,0,0,1,2.64-2.17l1.5-1.15c1.08-.85,2.26-1.7,4-2.87.53-.36,1.15-.8,1.37-1A8.81,8.81,0,0,1,81.59,57a1.46,1.46,0,0,0,.5-.3,6.32,6.32,0,0,1,.56-.33A5.87,5.87,0,0,0,83.3,56a10.35,10.35,0,0,1,1-.64s.33-.18.7-.41a6.75,6.75,0,0,1,1.24-.68,5,5,0,0,0,.84-.47c.41-.26,1.15-.65,2.44-1.29a17.44,17.44,0,0,1,2.14-1,6.61,6.61,0,0,0,.68-.3,12.42,12.42,0,0,1,1.7-.72,8.46,8.46,0,0,0,.8-.31,24,24,0,0,1,2.32-.85,28.64,28.64,0,0,1,3.5-1,3.72,3.72,0,0,0,.51-.17,4.57,4.57,0,0,1,.54-.19c.42-.11,1-.53.88-.62a3.84,3.84,0,0,0-1-.14,1.51,1.51,0,0,0-.33.07" transform="translate(-22.75 -6.23)"></path><path class="cls-4" d="M86.9,55.33l-1,.63c-.33.23-.9.59-1.26.82-1,.61-1.89,1.18-3.48,2.21-2.46,1.58-2.46,1.58-2.53,1.76s0,.52.4,1.57,1,2.56,1.86,4.79A26.17,26.17,0,0,0,82.09,70c.17.25.33.26,5.46.26a48.68,48.68,0,0,0,5.42-.1.22.22,0,0,0,.21-.28c0-.07-.21-.6-.43-1.18-.34-.84-3.69-9.52-4.76-12.33-.15-.39-.31-.78-.36-.88s-.24-.35-.31-.35a3.67,3.67,0,0,0-.42.24" transform="translate(-22.75 -6.23)"></path><path class="cls-4" d="M71.06,33.08s-.16.45-.34.93c-.35,1-1.56,4.28-1.79,5l-1.07,2.93c-.13.34-.48,1.31-.78,2.15l-1.29,3.58c-.41,1.12-.87,2.38-1,2.79-.51,1.4-1.19,3.26-1.67,4.56-.73,2-1.61,4.4-1.86,5.19-.11.35-.06.45.18.35s.22-.11,1-.7c.47-.38,1.69-1.31,4.06-3.09a52.9,52.9,0,0,0,4.16-3.27c.33-.32.36-.39,1.31-2.94.87-2.34,1.12-2.92,1.25-2.92a22.59,22.59,0,0,1,1.56,3.59c.36,1,.41,1.16.3,1.32s-.19.18-.84.59c-1,.65-4.63,3-6.26,4.14-1.45,1-4.53,3.31-6.42,4.82a95.71,95.71,0,0,0-7.77,7,56.71,56.71,0,0,0-4.62,5c-.24.32-.3.42-.29.51s0,0,.16-.06.84-.74,1.44-1.29c1.8-1.68,2.53-2.33,3.86-3.43,1.63-1.36,3.53-2.83,5.51-4.26s5.25-3.6,8-5.29c.8-.5,3-1.84,3.75-2.25,2.78-1.59,8.19-4.48,8.93-4.77.12,0,.42-.18.69-.31.85-.43,3.16-1.39,4-1.68.46-.16.56-.24.56-.45a1.81,1.81,0,0,0-.09-.41c-.12-.35-1.19-3.11-2.34-6.08C82.8,43,82,40.87,81.45,39.53,79.3,34,79.11,33.48,78.9,33.15L78.81,33H71.09Z" transform="translate(-22.75 -6.23)"></path></svg> 